<?xml version="1.0" encoding="UTF-8"?>
<svg xmlns="http://www.w3.org/2000/svg" viewBox="0 0 3472.46 860.87">
  <defs>
    <style>.cls-1{        fill: #3688cc}</style>
  </defs>
  <g id="Capa_1" data-name="Capa 1">
    <polygon class="cls-1" points="207.82 430.48 448.61 267.34 448.61 337.26 318.68 430.48 207.82 430.48"/>
    <polygon class="cls-1" points="711.28 430.48 878.67 430.48 475.39 160.08 475.39 275.97 711.28 430.48"/>
    <polygon class="cls-1" points="207.82 430.51 448.61 593.65 448.61 523.74 318.68 430.51 207.82 430.51"/>
    <polygon class="cls-1" points="711.28 430.51 878.67 430.51 475.39 700.91 475.39 585.03 711.28 430.51"/>
    <path class="cls-1" d="M448.61.93v131.34c-173.49-11.78-321.9,127.91-321.9,298.21,0,170.31,148.4,310.03,321.9,298.24v131.34c-27.56,1.84-186.3,9.82-315.72-110.25C2.65,629,0,469.36,0,430.48c0-39.27,2.66-194.11,128.25-314.56C260.04-10.5,423.29-.97,448.61.93Z"/>
  </g>
  <g id="Capa_4" data-name="Capa 4">
    <g>
      <path class="cls-1" d="M1321.04,551.84s0,.03,0,.04c-17.95,21.84-39.72,39.19-65.29,52.05-25.59,12.86-53.8,19.3-84.61,19.3-26.64,0-51.62-4.87-74.96-14.59-23.34-9.72-43.65-22.96-60.92-39.73-17.27-16.75-30.89-36.43-40.85-59.03-9.96-22.59-14.94-46.91-14.94-72.94s4.98-50.34,14.94-72.94c9.96-22.59,23.58-42.34,40.85-59.25,17.27-16.9,37.58-30.15,60.92-39.73,23.34-9.58,48.32-14.37,74.96-14.37,30.82,0,59.03,6.44,84.61,19.3,25.58,12.87,46.9,29.62,63.95,50.26,0,0,0,.02,0,.03l-48.01,49.36c-11.07-15.86-25.36-28.65-42.87-38.38-17.51-9.72-36.74-14.59-57.68-14.59-16.76,0-32.54,3.22-47.36,9.65-14.81,6.44-27.76,15.12-38.83,26.03-11.07,10.93-19.83,23.64-26.26,38.16-6.44,14.52-9.65,30-9.65,46.46s3.21,31.5,9.65,46.01c6.43,14.52,15.18,27.23,26.26,38.15,11.07,10.93,24.01,19.6,38.83,26.03,14.81,6.44,30.59,9.65,47.36,9.65,22.14,0,41.74-5.01,58.8-15.04,17.06-10.02,31.27-23.26,42.64-39.72l48.46,49.81Z"/>
      <path class="cls-1" d="M1605.64,616.49h-64.64v-155.31c0-9.27-1.43-17.43-4.29-24.46-2.85-7.03-6.61-12.86-11.27-17.51-4.66-4.64-10.07-8.08-16.23-10.33-6.16-2.24-12.55-3.37-19.15-3.37-9.92,0-19.39,1.5-28.4,4.49-9.01,2.99-17.71,7.17-26.11,12.55-.02.01-.03.04-.03.06v193.87s-64.64,0-64.64,0V244.38h64.64l.45,127.48c9.57-7.48,20.65-13.02,33.22-16.61,12.57-3.59,24.69-5.39,36.36-5.39,13.47,0,26.18,2.17,38.15,6.51,11.96,4.34,22.59,10.93,31.87,19.75,9.27,8.83,16.61,19.91,22,33.22,5.39,13.32,8.08,29.11,8.08,47.35v159.8Z"/>
      <path class="cls-1" d="M1887.97,616.49h-64.64v-13.92c-11.38,7.79-23.42,13.17-36.13,16.16-12.72,2.99-25.81,4.49-39.28,4.49-12.57,0-23.95-1.87-34.12-5.61-10.18-3.74-19.01-9.13-26.48-16.16-7.48-7.03-13.24-15.33-17.28-24.91-4.04-9.57-6.06-20.2-6.06-31.87,0-14.66,3.21-27.45,9.65-38.38,6.43-10.92,15.18-20.04,26.26-27.38,11.07-7.33,24.01-12.79,38.83-16.39,14.81-3.59,30.75-5.38,47.8-5.38h37.24s.02,0,.02-.02c0-15.25-4.94-27.37-14.81-36.34-9.87-8.98-24.09-13.47-42.64-13.47-8.98,0-18.26,1.65-27.83,4.94-9.58,3.3-19.15,9.28-28.72,17.95,0,0,0,0,0,0l-38.15-38.59s0,0,0-.01c13.76-13.16,29.69-23.33,47.8-30.51,18.1-7.18,36.73-10.78,55.89-10.78,17.95,0,33.94,2.85,47.96,8.53,14.01,5.69,25.33,13.02,33.95,21.99,11.29,11.38,19.24,24.09,23.85,38.15,4.6,14.07,6.91,32.03,6.91,53.87v143.64ZM1823.34,551.83v-48.01s-29.63,0-29.63,0c-8.98,0-17.43.61-25.36,1.8-7.93,1.2-14.81,3.22-20.65,6.06-5.84,2.85-10.48,6.51-13.92,10.99-3.44,4.49-5.16,9.87-5.16,16.16,0,8.98,3.51,16.31,10.55,22,7.03,5.69,16.08,8.53,27.16,8.53,9.57,0,19.08-1.49,28.5-4.49,9.42-2.98,18.91-7.32,28.48-13,.01,0,.02-.02.02-.03Z"/>
      <path class="cls-1" d="M2176.59,356.6l-128.83,201.99h123.89v57.91h-229.37l126.13-201.99h-114.01v-57.91h222.19Z"/>
      <path class="cls-1" d="M2443.22,616.49h-64.64v-13.92c-11.37,7.79-23.42,13.17-36.13,16.16-12.72,2.99-25.81,4.49-39.28,4.49-12.57,0-23.95-1.87-34.12-5.61-10.18-3.74-19.01-9.13-26.48-16.16-7.48-7.03-13.24-15.33-17.28-24.91-4.04-9.57-6.06-20.2-6.06-31.87,0-14.66,3.21-27.45,9.65-38.38,6.43-10.92,15.18-20.04,26.26-27.38,11.07-7.33,24.01-12.79,38.83-16.39,14.81-3.59,30.74-5.38,47.8-5.38h37.24s.02,0,.02-.02c0-15.25-4.94-27.37-14.81-36.34-9.87-8.98-24.09-13.47-42.64-13.47-8.98,0-18.26,1.65-27.83,4.94-9.58,3.3-19.15,9.28-28.72,17.95,0,0,0,0,0,0l-38.14-38.59s0,0,0-.01c13.76-13.16,29.69-23.33,47.8-30.51,18.1-7.18,36.73-10.78,55.89-10.78,17.95,0,33.94,2.85,47.96,8.53,14.01,5.69,25.33,13.02,33.95,21.99,11.29,11.38,19.24,24.09,23.85,38.15,4.6,14.07,6.91,32.03,6.91,53.87v143.64ZM2378.58,551.83v-48.01s-29.62,0-29.62,0c-8.98,0-17.43.61-25.36,1.8-7.93,1.2-14.81,3.22-20.65,6.06-5.83,2.85-10.48,6.51-13.92,10.99-3.44,4.49-5.16,9.87-5.16,16.16,0,8.98,3.51,16.31,10.55,22,7.03,5.69,16.08,8.53,27.16,8.53,9.57,0,19.08-1.49,28.5-4.49,9.42-2.98,18.91-7.32,28.48-13,.01,0,.02-.02.02-.03Z"/>
      <path class="cls-1" d="M2822.96,616.49h-68.23l-162.05-251.82v251.82h-68.23v-359.1h78.11l152.17,234.31v-234.31h68.23v359.1Z"/>
      <path class="cls-1" d="M3149.73,616.49h-237v-358.65h237v57.46h-168.78v85.73h166.53v56.11h-166.53v98.75h168.78v60.6Z"/>
      <path class="cls-1" d="M3472.46,319.79h-99.2v296.7h-70.47v-296.7h-99.2v-61.94h268.88v61.94Z"/>
    </g>
  </g>
</svg>
