<?xml version="1.0" encoding="UTF-8"?>
<svg id="Layer_2" data-name="Layer 2" fill="#3688cc" xmlns="http://www.w3.org/2000/svg" viewBox="0 0 837.68 820.78">
  <polygon points="837.68 410.4 453.21 152.62 453.21 263.1 678.1 410.4 453.21 557.74 453.21 668.22 837.68 410.4"/>
  <polygon points="427.68 565.96 198.13 410.4 427.68 254.87 427.68 321.53 303.82 410.4 427.68 499.31 427.68 565.96"/>
  <path d="M427.68,694.73v125.21c-42.04,2.62-142.83,2.97-241.39-59.23C54.61,677.62-5.21,525.72.37,390.75c1.93-46.64,15.77-190.34,138.71-295.47C258.98-7.25,398.41-1.06,427.68.89v125.21c-20.62-1.25-119.56-5.08-205.87,68.5-17.7,15.09-92.56,82.62-100.35,196.42-8.25,120.51,65.05,200.44,78.72,214.78,90.23,94.72,210.09,89.92,227.5,88.93Z"/>
</svg>