<?xml version="1.0" encoding="UTF-8"?>
<svg xmlns="http://www.w3.org/2000/svg" viewBox="0 0 953.72 377.14">
  <defs>
    <style>
      .cls-1 {
        fill: #5090b8;
      }

      .cls-2, .cls-3 {
        isolation: isolate;
      }

      .cls-3, .cls-4 {
        fill: #024566;
      }
    </style>
  </defs>
  <g id="Layer_3" data-name="Layer 3">
    <path class="cls-3" d="M164.18,3.96c-16.38.08-39.79,2.49-64.44,13.88C34.95,47.78-.18,122.14,0,188.83c.19,71.69,41.21,147.79,107.81,174.5,21.66,8.69,41.89,10.49,56.74,10.36-14.84-5.37-36.19-15.06-57.5-32.86-69.1-57.73-70.68-144.77-70.69-152.01-.13-65.48,32.38-126.02,80.55-160.65,17.65-12.69,34.69-19.95,47.26-24.22Z"/>
    <path class="cls-1" d="M298.35,32.33C287.27,23.91,248.25-3.59,194.71.39c-65.83,4.89-103.63,53.65-114.41,67.56-37.88,48.87-38.4,101.91-38.3,121.1.09,17.7,1.07,68.39,36.7,116.69,11.77,15.94,43.79,59.34,103.18,69.39,60.73,10.27,106.87-21.62,116.46-28.58-16.05.46-44.49-1-74.17-16.25-52.37-26.91-86.04-85.2-85.04-145.47,1.04-62.3,39.1-124.47,96.66-145.64,24.95-9.18,47.92-8.57,62.54-6.85Z"/>
    <g id="Layer_2" data-name="Layer 2" class="cls-2">
      <path class="cls-4" d="M244.76,75.67c11.59-3,28.13-5.09,44.63,1.48,52.48,20.9,50.98,108.16,50.79,114.41-1,33.89-14.02,96.79-56.96,110.22-14.13,4.42-27.64,2.27-37.23-.49,10.25-4.2,28.06-13.21,42.41-31.56,20.02-25.61,20.95-53.6,21.7-76.44.8-24.37,1.83-55.5-19.23-83.59-15.21-20.28-35.03-29.77-46.11-34.03Z"/>
    </g>
  </g>
  <g id="Layer_5" data-name="Layer 5" class="cls-2">
    <path class="cls-1" d="M376.36,279.91V112.07h27.78l63.45,113.75,60.99-113.75h29.92v167.84h-27.29v-121.81l-50.14,94.52c-.2.33-4.89,7.66-13.64,7.48-8.33-.17-12.69-7-12.99-7.48-17.32-31.89-34.63-63.78-51.95-95.67v123.12l-26.14-.16Z"/>
    <path class="cls-1" d="M672.76,110.35c-47.82-.89-87.9,39.06-87.29,87.04.6,47,40.04,85.7,87.29,84.82,46.32-.86,84.08-39.48,84.08-85.93s-38-85.08-84.08-85.93ZM672.18,262.11c-30.04.68-55.13-28.97-55.51-64.97-.39-36.76,25.1-67.35,55.51-66.67,29.3.65,53.47,30.13,53.47,65.82s-24.02,65.16-53.47,65.82Z"/>
    <rect class="cls-1" x="784.27" y="111.91" width="30.82" height="168.41"/>
    <path class="cls-1" d="M949.73,127.69c-1.16,3.01-2.65,6.35-4.56,9.86-2.31,4.26-4.75,7.87-7.03,10.85-21.42-13.55-42.86-17.12-53.51-8.38-1.34,1.1-9.1,7.46-8.89,16.2.09,3.97,1.83,7.52,4.52,10.95,13.42,17.15,33.27,10.51,54.18,26.35,4.75,3.6,12.74,9.65,16.77,20.22,7.18,18.81-1.74,42.55-17.26,55.97-22.06,19.07-51.23,11.89-58.44,10.11-17.91-4.41-29.82-14.44-35.51-19.97,2.07-3.27,4.4-6.71,7.03-10.23,2.28-3.07,4.56-5.9,6.78-8.51,26.18,14.06,50.4,18.06,61.15,9.71,6.78-5.27,8.51-11.82,8.51-11.82,2.05-7.76-1.59-14.71-2.57-16.59-9.8-18.71-37.78-8.97-58.21-28.64-9.93-9.56-16.86-24.88-14.79-40.19,3.08-22.82,24.3-34.33,27.37-36,21.73-11.8,50.77-7.58,74.47,10.11Z"/>
  </g>
</svg>