<?xml version="1.0" encoding="UTF-8"?>
<svg id="LOGOTIPO" xmlns="http://www.w3.org/2000/svg" version="1.1" viewBox="0 0 1190.55 841.89">
  <!-- Generator: Adobe Illustrator 29.5.1, SVG Export Plug-In . SVG Version: 2.1.0 Build 141)  -->
  <defs>
    <style>
      .st0 {
        fill: #a5a5a5;
      }

      .st1 {
        fill: #4fc17e;
      }
    </style>
  </defs>
  <g>
    <path class="st0" d="M193.92,556.92v-32.3h-6.17v-5.19h6.17v-1.78c0-5.27,1.36-10.07,5.08-13.09,2.99-2.48,6.98-3.48,10.7-3.48,2.81,0,5.26.54,6.8,1.08l-1.09,5.27c-1.18-.46-2.81-.85-5.08-.85-6.8,0-8.52,5.11-8.52,10.84v2.01h10.61v5.19h-10.61v32.3h-7.89Z"/>
    <path class="st0" d="M325.23,556.92l-.63-4.72h-.27c-2.45,2.94-7.16,5.58-13.42,5.58-8.89,0-13.42-5.34-13.42-10.77,0-9.06,9.43-14.02,26.39-13.94v-.78c0-3.1-1-8.67-9.98-8.67-4.08,0-8.34,1.08-11.43,2.79l-1.81-4.49c3.63-2.01,8.89-3.33,14.42-3.33,13.42,0,16.69,7.82,16.69,15.34v14.02c0,3.25.18,6.43.73,8.98h-7.25ZM324.05,537.79c-8.71-.16-18.59,1.16-18.59,8.44,0,4.42,3.45,6.51,7.53,6.51,5.71,0,9.34-3.1,10.61-6.27.27-.7.45-1.47.45-2.17v-6.51Z"/>
    <path class="st0" d="M457.26,555.53c-2.09.93-6.71,2.17-12.6,2.17-13.24,0-21.85-7.67-21.85-19.13s9.25-19.9,23.58-19.9c4.72,0,8.89,1.01,11.06,1.94l-1.81,5.27c-1.9-.93-4.9-1.78-9.25-1.78-10.07,0-15.51,6.35-15.51,14.17,0,8.67,6.53,14.02,15.23,14.02,4.53,0,7.53-1.01,9.79-1.86l1.36,5.11Z"/>
    <path class="st0" d="M556.83,508.9c.09,2.32-1.9,4.18-5.08,4.18-2.81,0-4.81-1.86-4.81-4.18s2.09-4.26,4.99-4.26,4.9,1.86,4.9,4.26ZM547.94,556.92v-37.49h7.98v37.49h-7.98Z"/>
    <path class="st0" d="M650.5,501.93h7.98v54.99h-7.98v-54.99Z"/>
    <path class="st0" d="M762.13,508.9c.09,2.32-1.9,4.18-5.08,4.18-2.81,0-4.81-1.86-4.81-4.18s2.09-4.26,4.99-4.26,4.9,1.86,4.9,4.26ZM753.24,556.92v-37.49h7.98v37.49h-7.98Z"/>
    <path class="st0" d="M865.42,508.67v10.77h11.43v5.19h-11.43v20.21c0,4.65,1.54,7.28,5.99,7.28,2.08,0,3.63-.23,4.62-.46l.36,5.11c-1.54.54-3.99.93-7.07.93-3.72,0-6.71-1.01-8.62-2.87-2.27-2.01-3.08-5.34-3.08-9.76v-20.45h-6.8v-5.19h6.8v-8.98l7.8-1.78Z"/>
    <path class="st0" d="M970.88,519.44l9.61,22.15c1,2.48,2.09,5.42,2.81,7.67h.18c.82-2.25,1.72-5.11,2.81-7.82l8.71-22h8.43l-11.97,26.72c-5.71,12.86-9.61,19.44-15.05,23.47-3.9,2.94-7.8,4.11-9.79,4.42l-2-5.73c2-.54,4.62-1.63,6.98-3.33,2.18-1.47,4.9-4.11,6.71-7.59.36-.7.63-1.24.63-1.63s-.18-.93-.54-1.78l-16.23-34.54h8.71Z"/>
  </g>
  <path class="st0" d="M214.44,459.4c-3.25,3.97-7.19,5.95-11.82,5.95s-8.58-1.98-11.82-5.95c-3.25-3.96-4.87-8.78-4.87-14.45v-144.45c0-5.66,1.62-10.47,4.87-14.44,3.24-3.96,7.18-5.95,11.82-5.95s8.57,1.98,11.82,5.95c3.24,3.97,4.87,8.78,4.87,14.44v144.45c0,5.67-1.62,10.48-4.87,14.45Z"/>
  <path class="st0" d="M240.49,372.74c0-10.76,1.45-21.59,4.35-32.5,2.89-10.9,7.13-20.82,12.69-29.74,5.56-8.92,12.28-16.21,20.16-21.88,7.88-5.66,16.8-8.5,26.77-8.5h176.02c4.63,0,8.57,1.98,11.82,5.95,3.24,3.97,4.87,8.78,4.87,14.44s-1.62,10.48-4.87,14.45c-3.25,3.97-7.19,5.95-11.82,5.95h-168.72c-8.12,0-14.66,1.77-19.64,5.31-4.99,3.55-8.92,7.86-11.82,12.96-2.9,5.1-4.87,10.69-5.91,16.78-1.04,6.09-1.56,11.68-1.56,16.78s.52,10.69,1.56,16.78c1.04,6.09,3.01,11.68,5.91,16.78,2.89,5.1,6.83,9.42,11.82,12.96,4.98,3.55,11.53,5.31,19.64,5.31h168.72c4.63,0,8.57,1.98,11.82,5.95,3.24,3.97,4.87,8.78,4.87,14.45s-1.62,10.48-4.87,14.45c-3.25,3.97-7.19,5.95-11.82,5.95h-179.5c-9.5,0-17.96-2.83-25.38-8.5-7.42-5.66-13.73-12.96-18.95-21.88-5.21-8.92-9.21-18.91-11.99-29.95-2.78-11.05-4.17-21.81-4.17-32.29Z"/>
  <path class="st0" d="M979.15,286.07c3.24-3.96,7.18-5.95,11.82-5.95s8.57,1.98,11.82,5.95c3.24,3.97,4.87,8.78,4.87,14.44v123.63c0,11.62-3.19,21.39-9.56,29.31-6.38,7.93-14.31,11.9-23.81,11.9-3.25,0-6.43-.56-9.56-1.7-3.13-1.13-5.97-2.69-8.52-4.67l-159.23-118.96c-4.41-3.11-8.06-5.59-10.95-7.43-2.9-1.84-5.27-2.76-7.13-2.76-3.48,0-5.68,2.69-6.61,8.07-.93,5.38-1.39,13.17-1.39,23.37v83.69c0,5.67-1.62,10.48-4.87,14.45-3.25,3.97-7.19,5.95-11.82,5.95s-8.58-1.98-11.82-5.95c-3.25-3.96-4.87-8.78-4.87-14.45v-123.63c0-11.61,3.18-21.38,9.56-29.31,6.37-7.93,14.31-11.89,23.81-11.89,3.24,0,6.43.57,9.56,1.7,3.13,1.13,5.97,2.69,8.52,4.67l159.23,118.95c4.4,3.12,8.05,5.6,10.95,7.44,2.89,1.84,5.27,2.76,7.13,2.76,3.48,0,5.68-2.69,6.61-8.07.92-5.38,1.39-13.17,1.39-23.37v-83.7c0-5.66,1.62-10.47,4.87-14.44Z"/>
  <g>
    <path class="st1" d="M700.15,316.99c-10.61-16.56-25.55-29.82-43.23-38.35-3.32-1.6-7.3-.21-8.9,3.1-1.6,3.32-.21,7.3,3.1,8.9,15.45,7.46,28.52,19.06,37.8,33.54,9.52,14.86,14.55,32.1,14.55,49.83,0,24.71-9.62,47.95-27.1,65.42-17.48,17.48-40.71,27.1-65.42,27.1s-47.95-9.62-65.42-27.1c-17.48-17.48-27.1-40.71-27.1-65.42,0-17.74,5.03-34.97,14.55-49.83,7.01-10.94,16.19-20.24,26.92-27.35.46,6.3,2.45,12.14,4.5,16.65,2.16,4.75,4.8,9.13,7.35,13.36,1.98,3.29,3.85,6.39,5.48,9.6,7.86,15.5,10.55,31.1,8,46.39-2.03,12.16-7.42,24.52-16.05,36.84-7.8-12.5-11.43-20.94-13.17-30.11-2.25-11.85-1.41-25.77,1.07-48.93.39-3.66-2.26-6.95-5.92-7.34-3.66-.4-6.94,2.26-7.34,5.92-5.06,47.33-3.96,60.77,19.28,95.6,1.2,1.8,3.21,2.93,5.37,3.02.1,0,.2,0,.3,0,2.05,0,4.02-.94,5.31-2.54,27.78-34.49,32.84-69.79,15.02-104.9-1.85-3.64-3.93-7.1-5.94-10.45-2.46-4.09-4.79-7.96-6.64-12.01-4.46-9.79-3.73-16.38-2.33-20.18.41-1.11.5-2.25.33-3.33-.03-.91-.24-1.83-.66-2.7-1.6-3.32-5.59-4.71-8.9-3.1-17.67,8.53-32.62,21.79-43.22,38.35-10.9,17.01-16.66,36.73-16.66,57.02,0,28.27,11.01,54.86,31,74.85,19.99,19.99,46.58,31,74.85,31s54.86-11.01,74.85-31c19.99-19.99,31-46.58,31-74.85,0-20.29-5.76-40.01-16.66-57.03Z"/>
    <path class="st1" d="M610.95,307.86c3.68,0,6.67-2.98,6.67-6.67v-28.92c0-3.68-2.98-6.67-6.67-6.67s-6.67,2.98-6.67,6.67v28.92c0,3.68,2.98,6.67,6.67,6.67Z"/>
  </g>
</svg>

<!-- tu sprite (inline u ópticamente oculto) -->
<svg style="display:none">

  <!-- tu símbolo nuevo -->
  <symbol id="logotipo-principal" viewBox="0 0 1190.55 841.89">
    <g>
    <path class="st0" d="M193.92,556.92v-32.3h-6.17v-5.19h6.17v-1.78c0-5.27,1.36-10.07,5.08-13.09,2.99-2.48,6.98-3.48,10.7-3.48,2.81,0,5.26.54,6.8,1.08l-1.09,5.27c-1.18-.46-2.81-.85-5.08-.85-6.8,0-8.52,5.11-8.52,10.84v2.01h10.61v5.19h-10.61v32.3h-7.89Z"/>
    <path class="st0" d="M325.23,556.92l-.63-4.72h-.27c-2.45,2.94-7.16,5.58-13.42,5.58-8.89,0-13.42-5.34-13.42-10.77,0-9.06,9.43-14.02,26.39-13.94v-.78c0-3.1-1-8.67-9.98-8.67-4.08,0-8.34,1.08-11.43,2.79l-1.81-4.49c3.63-2.01,8.89-3.33,14.42-3.33,13.42,0,16.69,7.82,16.69,15.34v14.02c0,3.25.18,6.43.73,8.98h-7.25ZM324.05,537.79c-8.71-.16-18.59,1.16-18.59,8.44,0,4.42,3.45,6.51,7.53,6.51,5.71,0,9.34-3.1,10.61-6.27.27-.7.45-1.47.45-2.17v-6.51Z"/>
    <path class="st0" d="M457.26,555.53c-2.09.93-6.71,2.17-12.6,2.17-13.24,0-21.85-7.67-21.85-19.13s9.25-19.9,23.58-19.9c4.72,0,8.89,1.01,11.06,1.94l-1.81,5.27c-1.9-.93-4.9-1.78-9.25-1.78-10.07,0-15.51,6.35-15.51,14.17,0,8.67,6.53,14.02,15.23,14.02,4.53,0,7.53-1.01,9.79-1.86l1.36,5.11Z"/>
    <path class="st0" d="M556.83,508.9c.09,2.32-1.9,4.18-5.08,4.18-2.81,0-4.81-1.86-4.81-4.18s2.09-4.26,4.99-4.26,4.9,1.86,4.9,4.26ZM547.94,556.92v-37.49h7.98v37.49h-7.98Z"/>
    <path class="st0" d="M650.5,501.93h7.98v54.99h-7.98v-54.99Z"/>
    <path class="st0" d="M762.13,508.9c.09,2.32-1.9,4.18-5.08,4.18-2.81,0-4.81-1.86-4.81-4.18s2.09-4.26,4.99-4.26,4.9,1.86,4.9,4.26ZM753.24,556.92v-37.49h7.98v37.49h-7.98Z"/>
    <path class="st0" d="M865.42,508.67v10.77h11.43v5.19h-11.43v20.21c0,4.65,1.54,7.28,5.99,7.28,2.08,0,3.63-.23,4.62-.46l.36,5.11c-1.54.54-3.99.93-7.07.93-3.72,0-6.71-1.01-8.62-2.87-2.27-2.01-3.08-5.34-3.08-9.76v-20.45h-6.8v-5.19h6.8v-8.98l7.8-1.78Z"/>
    <path class="st0" d="M970.88,519.44l9.61,22.15c1,2.48,2.09,5.42,2.81,7.67h.18c.82-2.25,1.72-5.11,2.81-7.82l8.71-22h8.43l-11.97,26.72c-5.71,12.86-9.61,19.44-15.05,23.47-3.9,2.94-7.8,4.11-9.79,4.42l-2-5.73c2-.54,4.62-1.63,6.98-3.33,2.18-1.47,4.9-4.11,6.71-7.59.36-.7.63-1.24.63-1.63s-.18-.93-.54-1.78l-16.23-34.54h8.71Z"/>
  </g>
  <path class="st0" d="M214.44,459.4c-3.25,3.97-7.19,5.95-11.82,5.95s-8.58-1.98-11.82-5.95c-3.25-3.96-4.87-8.78-4.87-14.45v-144.45c0-5.66,1.62-10.47,4.87-14.44,3.24-3.96,7.18-5.95,11.82-5.95s8.57,1.98,11.82,5.95c3.24,3.97,4.87,8.78,4.87,14.44v144.45c0,5.67-1.62,10.48-4.87,14.45Z"/>
  <path class="st0" d="M240.49,372.74c0-10.76,1.45-21.59,4.35-32.5,2.89-10.9,7.13-20.82,12.69-29.74,5.56-8.92,12.28-16.21,20.16-21.88,7.88-5.66,16.8-8.5,26.77-8.5h176.02c4.63,0,8.57,1.98,11.82,5.95,3.24,3.97,4.87,8.78,4.87,14.44s-1.62,10.48-4.87,14.45c-3.25,3.97-7.19,5.95-11.82,5.95h-168.72c-8.12,0-14.66,1.77-19.64,5.31-4.99,3.55-8.92,7.86-11.82,12.96-2.9,5.1-4.87,10.69-5.91,16.78-1.04,6.09-1.56,11.68-1.56,16.78s.52,10.69,1.56,16.78c1.04,6.09,3.01,11.68,5.91,16.78,2.89,5.1,6.83,9.42,11.82,12.96,4.98,3.55,11.53,5.31,19.64,5.31h168.72c4.63,0,8.57,1.98,11.82,5.95,3.24,3.97,4.87,8.78,4.87,14.45s-1.62,10.48-4.87,14.45c-3.25,3.97-7.19,5.95-11.82,5.95h-179.5c-9.5,0-17.96-2.83-25.38-8.5-7.42-5.66-13.73-12.96-18.95-21.88-5.21-8.92-9.21-18.91-11.99-29.95-2.78-11.05-4.17-21.81-4.17-32.29Z"/>
  <path class="st0" d="M979.15,286.07c3.24-3.96,7.18-5.95,11.82-5.95s8.57,1.98,11.82,5.95c3.24,3.97,4.87,8.78,4.87,14.44v123.63c0,11.62-3.19,21.39-9.56,29.31-6.38,7.93-14.31,11.9-23.81,11.9-3.25,0-6.43-.56-9.56-1.7-3.13-1.13-5.97-2.69-8.52-4.67l-159.23-118.96c-4.41-3.11-8.06-5.59-10.95-7.43-2.9-1.84-5.27-2.76-7.13-2.76-3.48,0-5.68,2.69-6.61,8.07-.93,5.38-1.39,13.17-1.39,23.37v83.69c0,5.67-1.62,10.48-4.87,14.45-3.25,3.97-7.19,5.95-11.82,5.95s-8.58-1.98-11.82-5.95c-3.25-3.96-4.87-8.78-4.87-14.45v-123.63c0-11.61,3.18-21.38,9.56-29.31,6.37-7.93,14.31-11.89,23.81-11.89,3.24,0,6.43.57,9.56,1.7,3.13,1.13,5.97,2.69,8.52,4.67l159.23,118.95c4.4,3.12,8.05,5.6,10.95,7.44,2.89,1.84,5.27,2.76,7.13,2.76,3.48,0,5.68-2.69,6.61-8.07.92-5.38,1.39-13.17,1.39-23.37v-83.7c0-5.66,1.62-10.47,4.87-14.44Z"/>
  <g>
    <path class="st1" d="M700.15,316.99c-10.61-16.56-25.55-29.82-43.23-38.35-3.32-1.6-7.3-.21-8.9,3.1-1.6,3.32-.21,7.3,3.1,8.9,15.45,7.46,28.52,19.06,37.8,33.54,9.52,14.86,14.55,32.1,14.55,49.83,0,24.71-9.62,47.95-27.1,65.42-17.48,17.48-40.71,27.1-65.42,27.1s-47.95-9.62-65.42-27.1c-17.48-17.48-27.1-40.71-27.1-65.42,0-17.74,5.03-34.97,14.55-49.83,7.01-10.94,16.19-20.24,26.92-27.35.46,6.3,2.45,12.14,4.5,16.65,2.16,4.75,4.8,9.13,7.35,13.36,1.98,3.29,3.85,6.39,5.48,9.6,7.86,15.5,10.55,31.1,8,46.39-2.03,12.16-7.42,24.52-16.05,36.84-7.8-12.5-11.43-20.94-13.17-30.11-2.25-11.85-1.41-25.77,1.07-48.93.39-3.66-2.26-6.95-5.92-7.34-3.66-.4-6.94,2.26-7.34,5.92-5.06,47.33-3.96,60.77,19.28,95.6,1.2,1.8,3.21,2.93,5.37,3.02.1,0,.2,0,.3,0,2.05,0,4.02-.94,5.31-2.54,27.78-34.49,32.84-69.79,15.02-104.9-1.85-3.64-3.93-7.1-5.94-10.45-2.46-4.09-4.79-7.96-6.64-12.01-4.46-9.79-3.73-16.38-2.33-20.18.41-1.11.5-2.25.33-3.33-.03-.91-.24-1.83-.66-2.7-1.6-3.32-5.59-4.71-8.9-3.1-17.67,8.53-32.62,21.79-43.22,38.35-10.9,17.01-16.66,36.73-16.66,57.02,0,28.27,11.01,54.86,31,74.85,19.99,19.99,46.58,31,74.85,31s54.86-11.01,74.85-31c19.99-19.99,31-46.58,31-74.85,0-20.29-5.76-40.01-16.66-57.03Z"/>
    <path class="st1" d="M610.95,307.86c3.68,0,6.67-2.98,6.67-6.67v-28.92c0-3.68-2.98-6.67-6.67-6.67s-6.67,2.98-6.67,6.67v28.92c0,3.68,2.98,6.67,6.67,6.67Z"/>
  </g>
  </symbol>

</svg>
